# xmcd
#
# Track frame offsets: 
#        150
#        11710
#        21488
#        33203
#        48043
#        72368
#        91754
#        110231
#        122974
#        139041
#        152610
#        172018
#        181706
#        195393
#        208171
#        227480
#        244953
#        266484
#        289593
#        301806
#        315137
#        324612
#
# Disc length: 4474 seconds
#
# Revision: 0
# Processed by: cddbd v1.5.2PL0 Copyright (c) Steve Scherf et al.
# Submitted via: ExactAudioCopy v1.0b3
#
DISCID=29117816
DTITLE=Various Artist - Great Black Music: roots (1927-1962): cd 3, 1958-1962
DYEAR=2014
DGENRE=black music
TTITLE0=Celia Cruz - el congo
TTITLE1=Little Richard - good golly, miss molly
TTITLE2=John Lee Hooker - boogie chillen
TTITLE3=Aretha Franklin - maybe I'm a fool
TTITLE4=John Coltrane - village blues
TTITLE5=John Davis - Moses
TTITLE6=Reverend Gary Davis - Samson and Delilah
TTITLE7=Howlin' Wolf - spoonful
TTITLE8=B.B. King - my own fault
TTITLE9=Franco and TP OK Jazz - azali mwasi baponela ngai
TTITLE10=Eric Dolphy - miss Ann
TTITLE11=Miriam Makeba feat. Hugh Masakela - umqokozo
TTITLE12=Mongo Santamaria - tele mina for chango
TTITLE13=Charles Iwegbue and Archibogs - igwala
TTITLE14=Lightnin’ Hopkins - catfish blues
TTITLE15=Ensemble Nemours Jean-Baptiste - contre-danse #8
TTITLE16=Tabu Ley Rochereau - K.J.
TTITLE17=Dr. Victoria Olaiya - trumpet highlife
TTITLE18=Quincy Jones - soul bossa nova
TTITLE19=Gastón el Isleño and Jaime Simanca - la cumbia te esta llaman
TTITLE19=do
TTITLE20=Solomon Burke - home in your heart
TTITLE21=Bob Marley - judge not
EXTD=
EXTT0=
EXTT1=
EXTT2=
EXTT3=
EXTT4=
EXTT5=
EXTT6=
EXTT7=
EXTT8=
EXTT9=
EXTT10=
EXTT11=
EXTT12=
EXTT13=
EXTT14=
EXTT15=
EXTT16=
EXTT17=
EXTT18=
EXTT19=
EXTT20=
EXTT21=
PLAYORDER=
